<?xml version="1.0" encoding="iso-8859-1"?>
<!-- Generator: Adobe Illustrator 22.1.0, SVG Export Plug-In . SVG Version: 6.00 Build 0)  -->
<svg version="1.1" id="Layer_1" xmlns="http://www.w3.org/2000/svg" xmlns:xlink="http://www.w3.org/1999/xlink" x="0px" y="0px"
	 width="300px" height="300px" viewBox="0 0 500 500" enable-background="new 0 0 500 500" xml:space="preserve">
<path fill="#5E1191" d="M368.447,40.706c0,0,2.285,9.733-9.479,9.479c-11.764-0.254-33.175-9.733-73.291,4.57
	s-50.356,30.044-61.273,31.737c-10.917,1.693-15.995-8.04-15.995-8.04s1.693,107.312-12.272,128.555
	c-14.049,21.158-62.712,44.685-86.747,40.115c0,0-6.855-10.579,7.194-20.65c0,0-7.194-10.917,7.701-18.28
	c0,0-17.434-5.162-3.131-19.465c0,0-15.149-3.47-6.855-17.773c0,0-18.026,4.57-10.325-11.764c0,0-5.755,8.294-23.781,1.777
	c0.254-4.57,2.116-9.056,9.733-17.773c9.479-10.917,14.303-8.04,13.71-10.917c-0.592-2.877-8.04-1.439-9.986,0
	c-2.031,1.439-10.917,6.601-14.049,11.764c-2.285,3.724-8.717,11.51-12.187,15.487c-3.131,0.085-6.432,0.339-8.717,0.762
	c-0.592,0.085-1.1,0.254-1.608,0.423c0.423-4.401,1.947-11.51,6.263-19.634c5.755-10.917,14.303-15.995,13.202-17.434
	c-1.185-1.439-6.601,1.185-9.733,3.47c-3.131,2.285-4.57,3.978-9.479,15.995c-3.555,8.802-9.394,20.227-12.356,25.728
	c-2.116,1.947-5.247,4.316-7.448,5.755c-2.539,1.693-6.009,3.131-6.263,7.448c-0.254,4.062-1.862,17.773-11.933,18.873
	c-1.1,0.085-1.862,0.931-1.947,2.031c-0.085,1.523,0.169,4.147,1.523,8.04c2.539,7.448,7.448,5.755,9.479,4.316
	s14.895-11.425,22.597-14.895c7.701-3.47,10.325-2.031,14.049-1.439c3.724,0.592,7.701,9.14,6.263,19.211
	c-1.439,10.071-16.926,26.659-20.058,47.224c-3.131,20.65,3.47,38.676,3.47,38.676l3.978-3.724c0,0-0.592,12.864,16.926,21.496
	c0,0,7.701,18.619,10.917,21.75c3.131,3.131-10.917,21.75-15.149,29.198c-4.316,7.448-3.978,6.855-5.755,7.194
	c-1.693,0.254-6.855-2.031-9.479,0c-2.539,2.031-2.285,10.579-0.254,11.425c2.031,0.846,18.026,0,19.719-2.877
	c1.693-2.878,2.539-17.18,9.986-19.465c7.448-2.285,23.781-15.487,24.035-18.28c0.254-2.878-2.285-17.434,0-19.719
	c2.285-2.285,8.04,11.171,10.917,14.641c2.877,3.47-4.57,16.926-5.755,22.597c-1.185,5.755-9.479,0.846-12.272,3.724
	c-2.793,2.878,0,8.886,1.693,9.986c1.693,1.185,15.149-0.846,17.773-2.539c2.539-1.693,9.986-25.22,12.272-31.229
	c2.285-6.009,4.316-8.548,3.724-10.579c-0.592-2.031-7.701-12.272-7.701-13.202c0-0.846,7.448,2.031,21.158-10.917
	c8.294-7.786,17.519-8.971,25.643-8.548c-2.624,5.67-9.817,21.581-9.309,25.982c0.592,5.416,12.864,9.479,14.895,9.733
	c2.031,0.254,7.194,2.877,7.194,9.733s0,18.026-2.877,19.211c-2.877,1.185-7.194-3.978-11.425-1.185
	c-4.316,2.877-4.57,10.917,0,11.171c4.57,0.254,6.263-0.846,12.272-0.846c6.009,0,10.579,0.677,11.425-3.724
	c1.185-6.009,8.548-22.597,7.194-28.013c-1.439-5.416-8.548-10.325-8.04-19.211c0.339-4.909,6.432-12.102,11.764-17.519
	c2.37,0.931,3.978,2.031,4.316,3.131c0.846,3.47-2.539,10.579-1.693,15.741s24.374,14.049,25.728,18.873
	c1.439,4.909,5.162,26.066,4.316,27.505c-0.846,1.439-7.701-0.846-8.886,5.755s6.432,6.263,8.548,6.263
	c2.2,0,11.171,0.254,12.864-2.539c1.693-2.877,1.693-40.623,0.592-42.908c-1.185-2.285-10.917-10.917-9.733-17.18
	c1.185-6.263,7.194-12.864,9.733-13.456c2.539-0.592,25.728-3.131,55.857,14.049c30.129,17.18,38.338,35.207,36.899,48.663
	c-1.439,13.456-13.202,42.4-53.233,52.133c-14.387,3.47-35.122,2.708-57.549,1.777c-8.379-13.964-19.042-15.488-19.042-15.488
	c3.047,4.401,5.078,10.579,6.263,14.895c-3.978-0.169-8.04-0.254-12.102-0.339c-4.655-5.332-15.572-16.334-25.643-17.18
	c0,0,6.77,10.579,6.855,17.18c-25.728,0.508-49.678,4.232-64.658,17.18c0,0,21.073-10.579,62.119-10.071
	c-1.016,5.078-7.278,12.525-7.278,12.525c11.51,0.762,18.957-8.379,21.412-11.933c4.909,0.339,10.071,0.846,15.403,1.523
	c-1.608,2.793-5.078,8.04-10.325,10.833c0,0,16.503,3.216,27.336-8.463c51.286,3.724,81.415-1.523,104.519-24.374
	c24.628-24.374,20.65-49.086,20.904-53.064c0.254-3.978,4.57-7.194,4.57-7.194s-16.588-4.909-10.917-25.474
	c0,0-16.334-0.254-16.334-16.588c0,0-22.343,1.693-23.189-20.311c0,0-21.496,5.416-24.035-15.995c0,0-18.873,8.886-26.066-11.171
	c0,0-18.026,15.741-28.605-7.194c0,0-0.339,0.592-1.016,1.439c-10.579,13.964-32.329-0.846-22.935-15.657
	c3.385-5.416,10.325-9.902,23.866-10.156c0,0-3.978-29.79,26.659-44.093c30.636-14.303,56.957,0.846,56.957,0.846
	s-3.47-32.668,25.728-39.523c29.198-6.855,48.917,9.14,48.917,9.14s2.539-22.935,41.215-20.904
	c38.676,2.031,47.478,8.04,47.478,8.04S476.352,80.482,368.447,40.706z"/>
<g>
</g>
<g>
</g>
<g>
</g>
<g>
</g>
<g>
</g>
<g>
</g>
<g>
</g>
<g>
</g>
<g>
</g>
<g>
</g>
<g>
</g>
<g>
</g>
<g>
</g>
<g>
</g>
<g>
</g>
</svg>
