<?xml version="1.0" encoding="iso-8859-1"?>
<!-- Generator: Adobe Illustrator 22.1.0, SVG Export Plug-In . SVG Version: 6.00 Build 0)  -->
<svg version="1.1" id="Layer_1" xmlns="http://www.w3.org/2000/svg" xmlns:xlink="http://www.w3.org/1999/xlink" x="0px" y="0px"
	 width="300px" height="300px" viewBox="0 0 500 500" enable-background="new 0 0 500 500" xml:space="preserve">
<path fill="#f2f2f2" d="M461.017,113.418c-1.41-4.325,8.65-12.599,8.65-12.599c-45.035-20.214-81.42-15.889-124.951,6.111
	c-43.625,22-69.48,56.505-77.848,55.847c-8.274-0.752-6.111-7.522-6.111-7.522c-20.214,16.923-30.65,52.933-38.924,79.916
	c-8.274,26.983-17.299,51.522-19.086,51.146c-1.786-0.376-6.111-3.197-9.684-10.06c-3.573-6.863-7.522-17.299-3.197-23.787
	s12.975,0.752,12.975,0.752c-0.376-4.701-8.65-19.086-12.222-26.607s-3.949-15.137-2.915-23.787
	c1.034-8.65,20.496-11.564,20.496-11.564s-6.863-3.573-12.222-5.735c-5.359-2.162-24.821-20.872-27.36-31.684
	c-2.539-10.812,2.162-14.009,2.162-14.009s-7.239-3.949-16.171-3.949c-8.932,0-26.325-2.538-65.155-13.727
	C50.53,110.974,54.479,98.375,54.479,98.375s-24.163,23.787-33.471,42.873c-9.402,19.086-5.077,34.975-1.41,52.933
	c3.573,18.052-7.898,18.052-7.898,21.624s16.547,0.752,37.137,8.274s49.736,30.932,77.472,57.258s32.437,36.385,32.437,36.385
	s-1.41,4.701-6.581,5.735c-5.171,1.034-5.171-4.325-5.171-4.325c-4.889,5.359-6.487,13.821-9.966,14.009
	c-3.479,0.282,1.88-12.411,1.88-12.411c-11.376,3.761-21.906,28.394-24.539,29.428c-2.633,1.034-1.88-11.376-1.88-11.376
	c-9.496,9.496-10.812,30.274-12.975,31.59c-2.162,1.316-4.325-12.693-4.325-12.693s-3.009,16.453-4.889,33.189
	c-1.88,16.735-8.65,29.146-8.932,32.719c-0.282,3.479,3.009,7.051,6.487,7.522s7.051-4.043,8.932-7.051
	c1.88-3.009,11.846-8.65,17.299-13.539c5.359-4.889,8.368-14.291,11.658-21.906c3.291-7.616,15.701-20.214,23.505-21.342
	c7.804-1.128,13.539,3.197,19.18,6.205c5.641,3.009,10.53,5.923,23.505,8.086c12.975,2.162,20.496-2.162,38.36-4.043
	c2.162-0.188,4.231-0.282,6.393-0.188c1.316,1.88,2.539,4.419,2.539,6.957c0,5.641,2.162,22.659,5.641,27.548
	c3.479,4.889,10.812,2.444,11.094-1.316c0.282-3.761-2.445-2.727-4.043-1.316c-1.598,1.316-4.043-0.282-4.889-6.487
	c0,0,5.923,3.197,8.274,0.564c2.35-2.727-1.034-5.265-2.727-5.265c-1.598,0-2.162,1.222-2.162,1.222s-3.197,0.188-3.761-4.701
	c-0.47-4.419-0.188-12.034,2.727-15.231c1.974,0.47,3.949,1.128,5.923,1.692c-0.188,2.35-0.282,6.299,0.846,10.06
	c1.692,5.735,12.693,2.539,13.257,2.539s5.265-1.974,5.265-1.974s1.974,1.974,2.727,12.975s2.539,20.872,6.487,22.659
	c3.949,1.786,6.299-4.513,5.547-6.675s-2.727-2.162-3.385-1.222c-0.752,0.94-2.162-1.034-2.35-4.325
	c-0.188-3.197,2.727-3.103,2.727-3.103s2.162,5.735,4.889,5.735c2.727,0,5.359-5.547,3.761-8.086c-1.598-2.539-5.359,0-5.359,0
	s-1.974,2.35-4.701-8.838c-0.846-3.479-0.94-6.581-0.658-9.12c0.188,0.094,0.282,0.094,0.47,0.188
	c20.214,6.769,38.642,34.881,38.642,34.881s21.624,39.488,58.104,31.872c11.564-2.444,19.932-8.18,25.855-14.949
	c4.513-5.077,9.684-9.496,15.513-12.975c4.325-2.539,7.616-4.231,7.616-4.231c-2.821-1.504-7.051-0.094-7.145-1.222
	c-0.094-1.034,3.385-5.359,6.769-10.436c3.385-4.983,4.701-10.624,4.701-10.624c-2.821,5.265-9.684,7.145-9.684,7.145
	c0.564-15.513-4.231-24.351-4.231-24.351c1.88,7.427-1.222,20.402-3.197,21.342c-2.068,0.94-4.043-3.009-4.607-4.983
	c-0.564-2.068-2.539-4.231-2.539-4.231c1.316,6.111,1.316,21.436-0.846,23.599s-6.487-5.359-6.487-5.359
	c0.846,2.068,1.504,4.231,1.88,6.299c1.504,7.71-1.504,15.513-7.71,20.214c-4.607,3.573-9.59,5.829-15.325,6.205
	c-19.18,1.41-26.983-5.923-35.351-19.462c-8.368-13.539-9.214-12.975-9.684-15.137c-0.564-2.162,3.479-1.598,3.479-1.598
	s-3.479-4.325-9.214-7.333c-5.641-3.009-8.932-6.205-8.932-7.522s9.214,1.316,9.214,1.316
	c-15.137-25.385-35.163-27.548-35.163-29.992s5.923-1.316,5.923-1.316c-5.641-17.864-36.479-26.983-36.479-26.983
	c6.205-3.009,15.231-1.222,15.231-1.222c-6.863-8.65-25.573-11.564-25.573-11.564c0-33.471,26.607-50.394,44.283-44.283
	c17.676,6.111,5.359,22.659,5.359,22.659s8.274-0.752,16.923-15.137c8.65-14.385,26.983-32.813,65.907-39.958
	c38.924-7.239,59.044,4.701,59.044,4.701c-6.111-17.299-5.359-38.924,8.65-68.822S499,162.402,499,162.402
	C494.487,128.273,462.427,117.743,461.017,113.418z"/>
<g>
</g>
<g>
</g>
<g>
</g>
<g>
</g>
<g>
</g>
<g>
</g>
<g>
</g>
<g>
</g>
<g>
</g>
<g>
</g>
<g>
</g>
<g>
</g>
<g>
</g>
<g>
</g>
<g>
</g>
</svg>
